<?xml version="1.0" encoding="UTF-8"?>
<!-- Generator: Adobe Illustrator 27.7.0, SVG Export Plug-In . SVG Version: 6.00 Build 0)  -->
<svg xmlns="http://www.w3.org/2000/svg" xmlns:xlink="http://www.w3.org/1999/xlink" version="1.1" x="0px" y="0px" viewBox="0 0 750 500" xml:space="preserve">
<g id="BACKGROUND" display="none">
</g>
<g id="OBJECTS">
	<rect display="none" fill="none" width="750" height="500"></rect>
	<g opacity="0.5">
		<path fill="#BBCECF" d="M140.1,433.3c0,0-150.6-240.9,66.1-224c216.7,16.9,94-98.3,242.2-134.7C596.5,38.2,725.9,177,655.3,428.2    L140.1,433.3z"></path>
		<path fill="#BBCECF" d="M345.2,125.7c14,44.2-123,96.3-139.1,46.9C188.6,118.6,334.8,92.7,345.2,125.7z"></path>
	</g>
	<g>
		<path fill="#25405C" d="M349.3,44.3c0,4-3.2,7.2-7.2,7.2c-4,0-7.2-3.2-7.2-7.2s3.2-7.2,7.2-7.2C346.1,37.2,349.3,40.4,349.3,44.3z    "></path>
		<rect x="338.1" y="133.1" fill="#25405C" width="8" height="281.6"></rect>
		<path fill="#E37F4F" d="M204.9,149.6c0,0,27.5-105.3,136.8-105.3s136.8,105.3,136.8,105.3s-50.7-12.8-93.7,0    c0,0-50.1-17.3-111.7,0C273.1,149.6,236.7,137.3,204.9,149.6z"></path>
		<path fill="#FFFFFF" d="M384.8,149.6c0,0-50.1-17.3-111.7,0c6.4-78.2,68.6-105.3,68.6-105.3C386,67.6,384.8,149.6,384.8,149.6z"></path>
		<path opacity="0.1" fill="#21272D" d="M478.5,149.6c0,0-50.7-12.8-93.7,0c0,0-50.1-17.3-111.7,0c0,0-36.4-12.3-68.3,0    c0,0,0.9-3.6,3.1-9.3c27.2-10,67.1-18.9,122.9-18.9c77.6,0,101.4-21.4,108-38.1C469,113.2,478.5,149.6,478.5,149.6z"></path>
	</g>
	<g>
		<g>
			<path fill="#25405C" d="M36.4,370.2c12.8,14.4,36.2,13.9,50.8,26.5c-8.7-3.8-17.9-6.5-27.3-8.1c-3.9-0.7-8-1.1-11.8,0     c-3.8,1.1-7.3,4-8,8c-0.7,4.4,2.4,8.8,6.5,10.8c4,2,8.7,2.1,13.2,1.9c8.1-0.3,16.2-1.5,24.4-1.5c8.1,0,16.5,1.3,23.5,5.4     c-11.4-1.9-23-1.7-34.3,0.5c-3.2,0.6-6.6,1.5-9.1,3.6c-2.5,2.1-4.1,5.8-2.8,8.8c0.8,1.9,2.5,3.2,4.4,4c7.6,3.3,16.1-0.9,23.9-3.5     c10.7-3.5,22.4-3.9,33.2-1.1c-6.4,1-12.7,2-19.1,3.1c-5.2,0.8-10.6,1.7-14.8,4.8c-2.8,2-5.1,5.7-3.5,8.7c1,2,3.3,3.1,5.6,3.4     c6.4,1.1,12.7-1.8,18.8-4.1c11.4-4.3,20.7-7.3,35.6-6.6c1.5-0.4,2.7-3.4,1.1-5.1c-1.7-1.7-4.8-3.9-6.6-5.6     c-5.7-5.3-9.9-16.7-9.8-25.7c0-9,1.1-14.5,2.2-23.5c0.3-2.3,0.5-4.7-0.4-6.8c-0.9-2.1-3.2-3.8-5.4-3.3c-1.5,0.4-2.6,1.6-3.4,2.9     c-2.8,4.4-3.1,10-3.3,15.2c-0.2,5.9-0.4,11.8-0.7,17.7c-0.1,1.4-0.4,3.1-1.7,3.4c-5.2-14.7-0.4-31.4-5.2-46.2     c-0.7-2.3-1.9-4.7-4.1-5.7c-3.9-1.7-8.3,2.3-8.8,6.5c-0.5,4.2,1.4,8.3,2.8,12.3c2.8,8.1,3.4,16.9,1.9,25.2     c-1.7,0.8-3.2-1.5-3.6-3.4c-1.9-8.1-3.2-16.4-6.1-24.2c-2.8-7.8-7.4-15.4-14.4-19.9c-1.9-1.2-4.1-2.3-6.3-2.2     c-2.3,0.1-4.6,1.5-5.2,3.7c-0.3,1-0.1,2.1,0.1,3.2c3.1,14.6,17.7,24.2,23,38.2c-5.6-6.3-13.1-13.8-20.4-19.1     c-3.2-2.3-8.8-5.3-12.3-6.9c-6.4-3-10.7-4.9-17.5-5C36.5,360.2,32.2,365.5,36.4,370.2z"></path>
			<g>
				<path fill="#558283" d="M116.1,277.5c-5.6-8.5-12-17-21.1-21.7c-9.1-4.7-21.4-4.3-28.3,3.2c-6.1,6.7-6.2,17.2-2.8,25.6      c3.4,8.4,9.6,15.2,15.6,22c30.6,34.9,65.1,82.4,85,124.3c-3.7-7.9,0-34.6-6.8-54.1c-3.1-9-5.8-15.6-8.4-24.7      C141.8,325.8,131.1,300.5,116.1,277.5z"></path>
				
					<path fill="none" stroke="#E8E8E8" stroke-width="0.7518" stroke-linecap="round" stroke-linejoin="round" stroke-miterlimit="10" d="      M79.8,268c34.5,40.9,70.2,100,84.5,159.4"></path>
			</g>
			<g>
				<g>
					<path fill="none" d="M113.1,401.9c-0.1,0-0.2,0-0.3-0.1c0,0,0,0-0.1,0C112.9,401.9,113,401.9,113.1,401.9z"></path>
					<path fill="#E37F4F" d="M88.7,329.3c-1.9,1.1-2.4,4.1-2.1,6.4c-4.4-11.3-14.9-20.2-26.9-22.4c-5.5-1-12.4-0.2-13.9,6.4       c-0.7,3,0.8,9.3,2.3,12c4.6,8.2,9.5,12.6,16.5,16.9c-1-0.2-2-0.2-3-0.1c-2.5,0.2-5,1.2-6.3,3.3c-1.2,2-1.1,4.5-0.4,6.8       c1.3,3.8,4.1,6.8,7.4,9c3.1,2,6.5,3.3,10,4.5c-0.4,0.1-0.7,0.2-1.1,0.3c-0.4,0.1-0.8,0.3-1.2,0.5c-1.3,0.3-2.5,1-3.1,2.2       c-0.8,0.8-1.4,1.7-1.8,2.7c-1.2,2.9-0.6,6.4,1,9.1c1.6,2.7,4,4.9,6.7,6.6c6.6,4.4,14.3,6.9,22.2,8c1.6,0.2,3.1,0.4,4.7,0.5       c-1.2,0.2-2.4,0.5-3.6,0.8c-1.9,0.6-3.8,1.4-5,2.9c-1.7,2.2-1.6,5.3-0.3,7.8c1.2,2.4,3.9,5.6,6.1,7.2       c9.7,7.1,35,15.1,55.2,17.6c-13.3-39.8-33.8-77.2-60.2-109.8C90.6,328.5,89.6,328.8,88.7,329.3z M113.1,401.9       c-0.1,0-0.2,0-0.4-0.1c0,0,0,0,0.1,0C112.9,401.9,113,401.9,113.1,401.9z"></path>
					<path fill="#C6633C" d="M146.3,378.4c-2.2-3.5-5.4-6.8-9.4-8c-4-1.2-9.2,1.5-9,5.6c-2.2-9-5.1-18.1-10.1-25.9       c-5-7.9-11.1-15.9-19.3-20.3c-2.4-1.3-4.7-1.6-6.7-1.4c26.4,32.6,46.9,70,60.2,109.8c1.1,0.1,2.2,0.3,3.2,0.4       c2,0.2,3.7-1.2,3.5-3.1C157.9,424.3,154.2,391.1,146.3,378.4z"></path>
				</g>
				<g>
					
						<path fill="none" stroke="#E8C79A" stroke-width="0.7418" stroke-linecap="round" stroke-linejoin="round" stroke-miterlimit="10" d="       M58.9,321.1c37.3,34.8,67.7,76.2,97.9,117.3"></path>
					
						<path fill="none" stroke="#E8C79A" stroke-width="0.7418" stroke-linecap="round" stroke-linejoin="round" stroke-miterlimit="10" d="       M95.8,337.2c6.3,9.6,9.6,21.1,9.3,32.6"></path>
					
						<path fill="none" stroke="#E8C79A" stroke-width="0.7418" stroke-linecap="round" stroke-linejoin="round" stroke-miterlimit="10" d="       M96.4,360.8c0.1-0.4-0.5-0.6-1-0.6c-9.7,0-19.4-1.9-28.4-5.7"></path>
					
						<path fill="none" stroke="#E8C79A" stroke-width="0.7418" stroke-linecap="round" stroke-linejoin="round" stroke-miterlimit="10" d="       M118.7,387.7c-13.3-0.1-26.6-2.8-38.8-8"></path>
					
						<path fill="none" stroke="#E8C79A" stroke-width="0.7418" stroke-linecap="round" stroke-linejoin="round" stroke-miterlimit="10" d="       M136.2,378.4c2.5,6.5,4.9,13,6.4,19.7c1.4,6.8,1.8,13.9,0,20.6"></path>
					
						<path fill="none" stroke="#E8C79A" stroke-width="0.7418" stroke-linecap="round" stroke-linejoin="round" stroke-miterlimit="10" d="       M139.4,414.8c-13.6,0.3-27.3-1.4-40.4-5.1"></path>
				</g>
				<g>
					<path fill="#E0A95D" d="M77.1,367c-1.1,0.3-2.3-0.1-3.3-0.8c-0.8-0.6-1.5-1.4-1.4-2.4c0.2-2.1,3.3-2.6,4.8-1.5       C78.8,363.5,79.6,366.3,77.1,367z"></path>
					<path fill="#E0A95D" d="M69.5,344.9c-0.7,0.2-1.4-0.1-1.9-0.5c-0.5-0.3-0.9-0.8-0.8-1.4c0.1-1.3,2-1.5,2.8-0.9       C70.6,342.9,71.1,344.5,69.5,344.9z"></path>
					<path fill="#E0A95D" d="M58.6,333.2c-0.2,1-1,1.8-1.9,2.3c-0.8,0.4-1.7,0.6-2.4,0.1c-1.6-1-0.7-3.7,0.7-4.4       C56.6,330.3,59.1,330.8,58.6,333.2z"></path>
					<path fill="#E0A95D" d="M80,330.7c-0.2,0.9-0.9,1.6-1.8,2.1c-0.7,0.4-1.6,0.5-2.2,0.1c-1.5-0.9-0.7-3.3,0.7-4       C78.2,328.1,80.5,328.6,80,330.7z"></path>
					<path fill="#E0A95D" d="M83.6,389.9c-0.1,0.7-0.7,1.2-1.3,1.5c-0.5,0.3-1.2,0.4-1.7,0.1c-1.1-0.7-0.5-2.5,0.5-3       C82.2,388,83.9,388.4,83.6,389.9z"></path>
					<path fill="#E0A95D" d="M89.4,374.5c-0.6,0.4-1.3,0.4-2,0.2c-0.6-0.2-1.1-0.5-1.3-1.1c-0.3-1.3,1.3-2.2,2.4-1.9       C89.6,372.2,90.7,373.6,89.4,374.5z"></path>
					<path fill="#E0A95D" d="M73.7,380.8c-0.1,0.7-0.5,1.3-1.1,1.7c-0.5,0.3-1.1,0.6-1.6,0.3c-1.2-0.6-0.8-2.4,0.1-3       C72.1,379.1,73.9,379.2,73.7,380.8z"></path>
				</g>
			</g>
			<g>
				<g>
					<path fill="#E0B534" d="M39.7,344.4c-0.2-0.1-0.3-0.1-0.5-0.2c-2.1-1-4.2-2.7-4.1-5c0-2.8,3.3-4.6,6.2-4.3       c-2.5,0-5-1.7-5.8-4.1c-0.8-2.4,0-5.2,2-6.8c1.4-1.1,3.3-1.5,5-1.1c0.6,2.4,1,4.8,1.1,7.3C43.6,335.1,42.3,340.1,39.7,344.4z"></path>
					<path fill="#E0A23C" d="M43.5,330.1c-0.1-2.5-0.4-4.9-1.1-7.3c0.7,0.1,1.4,0.4,2.1,0.8c-1.7-2.7-2.2-6.2-1.6-9.3       c0.4-1.8,1.3-3.7,3-4.5c2.2-1,4.8,0.3,6.3,2.1c1.5,1.8,2.3,4.2,3.5,6.2c-0.7-2.6,1.6-5.5,4.2-5.5c1.9,0,3.6,1.2,4.6,2.7       c1,1.6,1.4,3.4,1.7,5.2c0.7,5.2,0.7,10.2-1.5,15.7c-0.9,2.1-2.3,4.1-4.3,5.2c-3.5,1.8-5.7,3.1-9.6,3.8c-3.7,0.7-7.6,0.4-11.1-1       C42.3,340.1,43.6,335.1,43.5,330.1z"></path>
				</g>
				<g>
					<path fill="#25405C" d="M62.3,341.1c-2.3,2.1-5.1,3.7-8.2,4.5c-0.5,0.1-1,0.2-1.4,0.1s-0.9-0.6-0.8-1.1       c0.1-0.4,0.4-0.6,0.7-0.9c1.4-1,2.9-1.7,4.5-2.2c-2.7,1.2-5.8,1.5-8.6,0.9c-0.6-0.1-1.3-0.4-1.4-1c-0.2-0.8,0.8-1.4,1.6-1.6       c2.7-0.8,5.6-0.9,8.3-0.5c-2.5-1.3-4.3-3.1-6-5.4c-0.4-0.6-0.9-1.3-0.7-2.1c0.2-0.8,1.1-1.2,1.9-1.1c0.8,0.1,1.5,0.5,2.2,1       c2.2,1.6,4.2,3.5,5.8,5.7c-1.4-2.3-2.2-4.9-2.4-7.5c0-0.7,0-1.4,0.2-2c0.3-0.6,0.8-1.2,1.5-1.2c1.1-0.1,1.8,1.1,2.2,2.2       c0.8,2.2,1.3,4.6,1.4,7c0-2.3,0.4-4.6,1.3-6.7c0.3-0.7,0.8-1.4,1.5-1.2c1.2,3,0.1,6.3-1,9.4C64.5,338.8,63.6,339.9,62.3,341.1z       "></path>
					<path fill="none" stroke="#25405C" stroke-width="1.4338" stroke-miterlimit="10" d="M61.6,340.9c1.7,3.3,4.2,6.2,6.7,8.9       c8.2,8.6,17.2,16.4,27.5,22.4c10.2,6,21.7,10,33.5,10.8c6.5,0.4,13-0.1,19.5-0.7"></path>
					<path fill="#25405C" d="M62.8,342.4c0.2-0.2,0.3-0.4,0.5-0.6c0.2-0.3,0.2-0.6,0.3-1c0.1-0.4,0.1-0.8-0.2-1       c-0.2-0.1-0.4-0.2-0.6-0.2c-1.5-0.1-2.9,1-3.3,2.4C59,344.1,62,343.1,62.8,342.4z"></path>
				</g>
			</g>
		</g>
		<g>
			<path fill="#25405C" d="M737.2,357c-12.8,14.4-36.2,13.9-50.8,26.5c8.7-3.8,17.9-6.5,27.3-8.1c3.9-0.7,8-1.1,11.8,0s7.3,4,8,8     c0.7,4.4-2.4,8.8-6.5,10.8c-4,2-8.7,2.1-13.2,1.9c-8.1-0.3-16.2-1.5-24.4-1.5c-8.1,0-16.5,1.3-23.5,5.4c11.4-1.9,23-1.7,34.3,0.5     c3.2,0.6,6.6,1.5,9.1,3.6c2.5,2.1,4.1,5.8,2.8,8.8c-0.8,1.9-2.5,3.2-4.4,4c-7.6,3.3-16.1-0.9-23.9-3.5     c-10.7-3.5-22.4-3.9-33.2-1.1c6.4,1,12.7,2,19.1,3.1c5.2,0.8,10.6,1.7,14.8,4.8c2.8,2,5.1,5.7,3.5,8.7c-1,2-3.3,3.1-5.6,3.4     c-6.4,1.1-12.7-1.8-18.8-4.1c-11.4-4.3-20.7-7.3-35.6-6.6c-1.5-0.4-2.7-3.4-1.1-5.1c1.7-1.7,4.8-3.9,6.6-5.6     c5.7-5.3,9.9-16.7,9.8-25.7c0-9-1.1-14.5-2.2-23.5c-0.3-2.3-0.5-4.7,0.4-6.8s3.2-3.8,5.4-3.3c1.5,0.4,2.6,1.6,3.4,2.9     c2.8,4.4,3.1,10,3.3,15.2c0.2,5.9,0.4,11.8,0.7,17.7c0.1,1.4,0.4,3.1,1.7,3.4c5.2-14.7,0.4-31.4,5.2-46.2     c0.7-2.3,1.9-4.7,4.1-5.7c3.9-1.7,8.3,2.3,8.8,6.5c0.5,4.2-1.4,8.3-2.8,12.3c-2.8,8.1-3.4,16.9-1.9,25.2c1.7,0.8,3.2-1.5,3.6-3.4     c1.9-8.1,3.2-16.4,6.1-24.2s7.4-15.4,14.4-19.9c1.9-1.2,4.1-2.3,6.3-2.2c2.3,0.1,4.6,1.5,5.2,3.7c0.3,1,0.1,2.1-0.1,3.2     c-3.1,14.6-17.7,24.2-23,38.2c5.6-6.3,13.1-13.8,20.4-19.1c3.2-2.3,8.8-5.3,12.3-6.9c6.4-3,10.7-4.9,17.5-5     C737.1,347,741.4,352.3,737.2,357z"></path>
			<g>
				<path fill="#558283" d="M627.8,296.8c3.1-7.8,6.9-15.8,13.4-21.1s16.6-7.1,23.4-2.1c6,4.4,7.9,12.8,6.5,20.2      c-1.3,7.3-5.3,13.9-8.9,20.4c-18.9,33.3-38.8,77.5-47.9,114.7c1.7-7-5.8-28-3.5-44.8c1-7.8,2.1-13.6,2.7-21.4      C615.1,340.1,619.5,317.9,627.8,296.8z"></path>
				
					<path fill="none" stroke="#E8E8E8" stroke-width="0.6204" stroke-linecap="round" stroke-linejoin="round" stroke-miterlimit="10" d="      M655.5,283c-21,38.8-40,92.6-41.6,143"></path>
			</g>
			<g>
				<g>
					<path fill="none" d="M636.7,411.9c0.1,0,0.2-0.1,0.3-0.1c0,0,0,0,0.1,0C637,411.9,636.9,411.9,636.7,411.9z"></path>
					<path fill="#E37F4F" d="M647.9,336.2c-21.8,35.9-37.1,75.6-45,116.9c19.7-5.2,43.7-16.5,52.3-24.8c2-1.9,4.2-5.3,5.1-7.9       c0.9-2.6,0.6-5.7-1.3-7.7c-1.4-1.4-3.4-1.9-5.3-2.2c-1.2-0.2-2.4-0.3-3.6-0.3c1.5-0.3,3.1-0.7,4.6-1.1       c7.6-2.1,15-5.6,20.9-10.9c2.4-2.1,4.5-4.5,5.7-7.4c1.2-2.9,1.3-6.4-0.3-9.1c-0.6-1-1.3-1.8-2.2-2.5c-0.8-1-2-1.6-3.4-1.7       c-0.4-0.1-0.8-0.2-1.2-0.3c-0.4-0.1-0.7-0.1-1.1-0.1c3.3-1.6,6.6-3.4,9.3-5.8c3-2.6,5.4-6,6.2-9.9c0.4-2.3,0.2-4.8-1.3-6.6       c-1.6-1.9-4.2-2.6-6.7-2.4c-1.1,0.1-2.1,0.3-3,0.5c6.3-5.2,10.6-10.3,14.1-19c1.1-2.8,1.7-9.3,0.6-12.2       c-2.4-6.4-9.3-6.3-14.6-4.5c-11.6,3.8-20.8,14-23.6,25.8c0-2.4-0.9-5.3-2.9-6.1C650.3,336.3,649.2,336.1,647.9,336.2z        M637,411.8C637.1,411.8,637.1,411.8,637,411.8c-0.1,0-0.2,0.1-0.3,0.1C636.8,411.9,636.9,411.9,637,411.8z"></path>
					<path fill="#C6633C" d="M600.7,393c1.7-3.8,4.5-7.5,8.2-9.2c3.8-1.7,9.3,0.2,9.7,4.3c1-9.3,2.6-18.6,6.5-27       c3.9-8.5,8.8-17.2,16.4-22.7c2.2-1.6,4.5-2.2,6.4-2.3c-21.8,35.9-37.1,75.6-45,116.9c-1.1,0.3-2.1,0.5-3.1,0.8       c-1.9,0.5-3.8-0.7-3.9-2.6C595.3,440,594.6,406.6,600.7,393z"></path>
				</g>
				<g>
					
						<path fill="none" stroke="#E8C79A" stroke-width="0.7418" stroke-linecap="round" stroke-linejoin="round" stroke-miterlimit="10" d="       M679.7,324.6c-32.3,39.5-56.9,84.6-81.4,129.4"></path>
					
						<path fill="none" stroke="#E8C79A" stroke-width="0.7418" stroke-linecap="round" stroke-linejoin="round" stroke-miterlimit="10" d="       M645.2,345.5c-5,10.3-6.7,22.2-4.8,33.5"></path>
					
						<path fill="none" stroke="#E8C79A" stroke-width="0.7418" stroke-linecap="round" stroke-linejoin="round" stroke-miterlimit="10" d="       M647.8,368.9c-0.1-0.4,0.5-0.7,0.9-0.7c9.6-1.3,19-4.5,27.4-9.5"></path>
					
						<path fill="none" stroke="#E8C79A" stroke-width="0.7418" stroke-linecap="round" stroke-linejoin="round" stroke-miterlimit="10" d="       M629.3,398.6c13.2-1.9,26-6.4,37.4-13.1"></path>
					
						<path fill="none" stroke="#E8C79A" stroke-width="0.7418" stroke-linecap="round" stroke-linejoin="round" stroke-miterlimit="10" d="       M610.7,391.7c-1.6,6.7-3.2,13.5-3.7,20.4c-0.5,6.9,0.1,14,2.7,20.4"></path>
					
						<path fill="none" stroke="#E8C79A" stroke-width="0.7418" stroke-linecap="round" stroke-linejoin="round" stroke-miterlimit="10" d="       M612.4,428.2c13.5-1.5,26.9-5,39.4-10.4"></path>
				</g>
				<g>
					<path fill="#E0A95D" d="M667.8,372.5c1.1,0.1,2.3-0.4,3.1-1.2c0.7-0.7,1.3-1.6,1.1-2.5c-0.5-2.1-3.6-2.1-4.9-0.9       C665.6,369.3,665.1,372.2,667.8,372.5z"></path>
					<path fill="#E0A95D" d="M672.3,349.6c0.7,0.1,1.4-0.2,1.9-0.7c0.4-0.4,0.8-0.9,0.6-1.5c-0.3-1.2-2.1-1.3-2.9-0.5       C671,347.7,670.7,349.4,672.3,349.6z"></path>
					<path fill="#E0A95D" d="M681.5,336.5c0.3,1,1.3,1.6,2.2,2c0.8,0.3,1.8,0.4,2.4-0.2c1.5-1.2,0.2-3.7-1.3-4.3       C683.2,333.4,680.7,334.3,681.5,336.5z"></path>
					<path fill="#E0A95D" d="M660,336.9c0.3,0.9,1.1,1.5,2,1.8c0.7,0.3,1.6,0.3,2.2-0.2c1.3-1.1,0.2-3.4-1.2-3.9       C661.5,334.1,659.3,334.9,660,336.9z"></path>
					<path fill="#E0A95D" d="M664.4,396.1c0.2,0.7,0.9,1.1,1.5,1.3c0.5,0.2,1.2,0.2,1.7-0.1c1-0.8,0.1-2.5-0.9-2.9       C665.5,394,663.9,394.6,664.4,396.1z"></path>
					<path fill="#E0A95D" d="M656.6,381.6c0.6,0.3,1.4,0.2,2,0c0.5-0.2,1.1-0.6,1.1-1.2c0.2-1.3-1.6-2-2.6-1.5       C656,379.3,655.2,380.8,656.6,381.6z"></path>
					<path fill="#E0A95D" d="M672.9,385.8c0.2,0.7,0.7,1.2,1.3,1.5c0.5,0.3,1.2,0.4,1.7,0.1c1.1-0.7,0.5-2.5-0.5-3       C674.3,383.8,672.6,384.2,672.9,385.8z"></path>
				</g>
			</g>
			<g>
				<g>
					<path fill="#E0B534" d="M706.2,308.7c0.1-0.1,0.3-0.2,0.4-0.3c1.7-1.5,3.2-3.8,2.5-6c-0.8-2.7-4.5-3.5-7.1-2.4       c2.4-0.7,4.3-3.1,4.4-5.6c0.1-2.5-1.5-5-3.8-6c-1.7-0.7-3.6-0.5-5.1,0.3c0.1,2.5,0.4,4.9,1.1,7.3       C699.7,300.9,702.5,305.4,706.2,308.7z"></path>
					<path fill="#E0A23C" d="M698.4,296.1c-0.7-2.4-1-4.9-1.1-7.3c-0.7,0.3-1.3,0.8-1.7,1.4c0.9-3.1,0.3-6.5-1.2-9.4       c-0.9-1.6-2.3-3.2-4.1-3.4c-2.4-0.3-4.5,1.7-5.4,3.9c-0.9,2.2-1,4.6-1.6,6.9c-0.1-2.7-3.1-4.8-5.6-4.1       c-1.8,0.5-3.1,2.2-3.6,3.9c-0.5,1.8-0.4,3.7-0.1,5.5c0.8,5.2,2.2,10,5.9,14.6c1.4,1.8,3.4,3.3,5.6,3.7       c3.9,0.7,6.3,1.4,10.3,0.9c3.8-0.4,7.5-1.8,10.4-4.2C702.5,305.4,699.7,300.9,698.4,296.1z"></path>
				</g>
				<g>
					<path fill="#25405C" d="M683.6,312c2.8,1.4,6,2,9.1,2c0.5,0,1,0,1.4-0.3c0.4-0.3,0.7-0.8,0.5-1.2c-0.2-0.3-0.6-0.5-0.9-0.6       c-1.6-0.5-3.3-0.8-5-0.8c2.9,0.4,6-0.2,8.5-1.6c0.5-0.3,1.1-0.7,1.1-1.3c0-0.8-1.1-1.1-2-1.1c-2.8,0-5.6,0.7-8.1,1.9       c2.1-2,3.3-4.2,4.2-6.9c0.3-0.7,0.5-1.5,0.1-2.2c-0.4-0.7-1.4-0.8-2.2-0.5c-0.7,0.3-1.3,0.9-1.8,1.6c-1.7,2.1-3,4.6-3.9,7.1       c0.7-2.6,0.7-5.3,0.1-7.9c-0.2-0.7-0.4-1.4-0.8-1.9c-0.4-0.5-1.2-0.9-1.8-0.7c-1.1,0.3-1.4,1.6-1.5,2.7c-0.2,2.4,0,4.8,0.6,7.1       c-0.6-2.2-1.7-4.3-3.2-6c-0.5-0.5-1.2-1.1-1.8-0.7c-0.3,3.2,1.7,6.1,3.7,8.7C680.9,310.5,682.1,311.2,683.6,312z"></path>
					<path fill="none" stroke="#25405C" stroke-width="1.4338" stroke-miterlimit="10" d="M684.2,311.6c-0.6,3.7-2.2,7.1-3.9,10.4       c-5.3,10.6-11.8,20.7-19.9,29.3c-8.1,8.6-17.9,15.8-29,19.9c-6.1,2.3-12.5,3.6-18.9,5"></path>
					<path fill="#25405C" d="M683.5,313.4c-0.2-0.1-0.4-0.2-0.6-0.4c-0.2-0.2-0.4-0.6-0.5-0.9c-0.2-0.3-0.3-0.7-0.1-1       c0.1-0.2,0.3-0.3,0.5-0.3c1.4-0.5,3.1,0.1,3.8,1.4C687.6,313.9,684.4,313.9,683.5,313.4z"></path>
				</g>
			</g>
		</g>
	</g>
	<ellipse fill="#BABFC6" cx="389.9" cy="440.6" rx="305.6" ry="33.8"></ellipse>
	<g>
		<g>
			<path fill="#C68424" d="M212.5,431.9c-5.2,3.4-10.8,6.7-16.7,9.8c-5.9-3.1-11.5-6.4-16.7-9.8C78.9,366.9,98,254.2,98,254.2     l81.2-35.2l16.7-7.2l16.7,7.2l81.2,35.2C293.7,254.2,312.9,366.9,212.5,431.9z"></path>
			<path fill="#ECB752" d="M205.3,435.1c-5.2,3.4-10.8,6.7-16.7,9.8c-5.9-3.1-11.5-6.4-16.7-9.8c-100.3-65-81.2-177.8-81.2-177.8     l81.2-35.2l16.7-7.2l16.7,7.2l81.2,35.2C286.5,257.3,305.6,370.1,205.3,435.1z"></path>
			<path fill="#FFFFFF" d="M202.7,418.4c-4.4,2.9-9.1,5.6-14,8.2c-5-2.6-9.6-5.4-14-8.2c-84.4-54.7-68.3-149.5-68.3-149.5l68.3-29.6     l14-6.1l14,6.1l68.3,29.6C270.9,268.8,287,363.7,202.7,418.4z"></path>
			
				<ellipse transform="matrix(0.2396 -0.9709 0.9709 0.2396 -165.4482 425.0317)" fill="#E37F4F" cx="188.6" cy="318.1" rx="51.5" ry="51.5"></ellipse>
			<polygon fill="#FFFFFF" points="223.9,311.1 195,311.1 195,282.1 180.9,282.1 180.9,311.1 152,311.1 152,325.2 180.9,325.2      180.9,354.1 195,354.1 195,325.2 223.9,325.2    "></polygon>
			<path opacity="0.1" fill="#21272D" d="M286.3,305.2c-4.9,38.5-22.9,92.2-81,129.8c-5.2,3.4-10.8,6.7-16.7,9.8     c-5.9-3.1-11.5-6.4-16.7-9.8c-14.5-9.4-26.5-19.8-36.4-30.6C224.1,400.4,266.9,344.8,286.3,305.2z"></path>
		</g>
		<g>
			<path fill="#ECB752" d="M635.4,97.1H504.2c-5,0-9,4-9,9v306.4c0,5,4,9,9,9h131.2c5,0,9-4,9-9V106.1     C644.4,101.1,640.4,97.1,635.4,97.1z"></path>
			<rect x="505.5" y="97.1" fill="#FFFFFF" width="118.7" height="324.3"></rect>
			
				<line fill="none" stroke="#25405C" stroke-width="1.9852" stroke-miterlimit="10" stroke-dasharray="3.9703,3.9703" x1="495.2" y1="300.2" x2="644.4" y2="300.2"></line>
			
				<rect x="562.7" y="353.1" transform="matrix(-1.836970e-16 1 -1 -1.836970e-16 967.547 -252.4269)" fill="#E0E3E9" width="94.5" height="9"></rect>
			
				<rect x="503.1" y="333.5" transform="matrix(-1.836970e-16 1 -1 -1.836970e-16 868.709 -192.8252)" fill="#E0E3E9" width="55.3" height="9"></rect>
			
				<rect x="549.3" y="353.1" transform="matrix(-1.836970e-16 1 -1 -1.836970e-16 954.0946 -238.9745)" fill="#E0E3E9" width="94.5" height="9"></rect>
			
				<rect x="538.6" y="355.8" transform="matrix(-1.836970e-16 1 -1 -1.836970e-16 943.4047 -228.2845)" fill="#E0E3E9" width="94.5" height="3.4"></rect>
			
				<rect x="562.7" y="236.5" transform="matrix(-1.836970e-16 1 -1 -1.836970e-16 850.9593 -369.0146)" fill="#E0E3E9" width="94.5" height="9"></rect>
			
				<rect x="549.3" y="236.5" transform="matrix(-1.836970e-16 1 -1 -1.836970e-16 837.5069 -355.5622)" fill="#E0E3E9" width="94.5" height="9"></rect>
			
				<rect x="538.6" y="239.3" transform="matrix(-1.836970e-16 1 -1 -1.836970e-16 826.817 -344.8722)" fill="#E0E3E9" width="94.5" height="3.4"></rect>
			
				<rect x="487.7" y="239.3" transform="matrix(-1.836970e-16 1 -1 -1.836970e-16 775.9835 -294.0387)" fill="#E0E3E9" width="94.5" height="3.4"></rect>
			
				<rect x="527.9" y="353.1" transform="matrix(-1.836970e-16 1 -1 -1.836970e-16 932.7146 -217.5945)" fill="#E0E3E9" width="94.5" height="9"></rect>
			
				<rect x="514.4" y="353.1" transform="matrix(-1.836970e-16 1 -1 -1.836970e-16 919.2622 -204.1421)" fill="#E0E3E9" width="94.5" height="9"></rect>
			
				<rect x="503.7" y="355.8" transform="matrix(-1.836970e-16 1 -1 -1.836970e-16 908.5723 -193.4521)" fill="#E0E3E9" width="94.5" height="3.4"></rect>
			<path fill="#25405C" d="M596.4,141.2l-9.4,0.3l-5.1-16.9h1.1c1.2,0,2.2-1,2.2-2.2s-1-2.2-2.2-2.2h-2.4l-3.1-10.2     c-0.7-2.2-2.3-4-4.4-4.8l-4.1-1.6v38.5l-18.4,0.7l-4-13.2c-0.3-1-1.1-1.9-2.1-2.3l-1.9-0.7v17.7h-2c-1.2,0-2.2,1-2.2,2.2     c0,1.2,1,2.2,2.2,2.2h2v17.7l2.1-0.8c0.9-0.4,1.6-1.1,1.8-2l4.2-13.9L569,150v39.3l4.5-1.8c1.9-0.7,3.3-2.3,3.9-4.3l3.1-10.3h2.5     c1.2,0,2.2-1,2.2-2.2c0-1.2-1-2.2-2.2-2.2h-1.2l5.5-18.2l9.1,0.2c2.6,0,4.7-2.1,4.7-4.7C601.1,143.3,599,141.2,596.4,141.2z"></path>
			
				<rect x="543.8" y="193.7" transform="matrix(-1.836970e-16 1 -1 -1.836970e-16 770.7119 -350.1438)" fill="#E0E3E9" width="33.2" height="33.2"></rect>
		</g>
		<g>
			<g>
				<path fill="#558283" d="M631.9,217l7.9,93.1l-160.4,13.6l-4.4-52.2C475.1,271.6,601.1,250.6,631.9,217z"></path>
				<path fill="#457575" d="M482.2,274l4.2,50l148.8-12.6l-7.2-62.3c-1.2,0.5-2.5,0.8-3.8,0.9c-7.2,0.6-13.5-4.5-14.5-11.5      C562.2,263.2,482.2,274,482.2,274z"></path>
				<path fill="#457575" d="M616.5,238.4c0,0.1,0,0.3,0,0.4c0.5,3.2,3.4,5.5,6.7,5.3c0.6-0.1,1.2-0.2,1.7-0.4c2.5-1,4.1-3.5,3.9-6.3      c-0.3-3.4-3.3-5.9-6.7-5.6C618.7,232,616.2,235,616.5,238.4z"></path>
			</g>
			<g>
				<path fill="#558283" d="M647.5,236.7l7.9,93.1l-160.4,13.6l-4.4-52.2C490.7,291.3,616.7,270.4,647.5,236.7z"></path>
				<path fill="#457575" d="M497.8,293.8l4.2,50l148.8-12.6l-7.2-62.3c-1.2,0.5-2.5,0.8-3.8,0.9c-7.2,0.6-13.5-4.5-14.5-11.5      C577.8,283,497.8,293.8,497.8,293.8z"></path>
				<path fill="#457575" d="M632.1,258.1c0,0.1,0,0.3,0,0.4c0.5,3.2,3.4,5.5,6.7,5.3c0.6-0.1,1.2-0.2,1.7-0.4c2.5-1,4.1-3.5,3.9-6.3      c-0.3-3.4-3.3-5.9-6.7-5.6C634.3,251.7,631.8,254.7,632.1,258.1z"></path>
			</g>
			<path fill="#25405C" d="M650.3,432.6H480.2c-8.7,0-15.8-7.1-15.8-15.8V300.5c0-8.7,7.1-15.8,15.8-15.8h170.1     c8.7,0,15.8,7.1,15.8,15.8v116.3C666.2,425.6,659.1,432.6,650.3,432.6z"></path>
			<path fill="#1E364C" d="M464.4,330.4v86.4c0,8.7,7.1,15.8,15.8,15.8h170.1c8.4,0,15.2-6.5,15.8-14.8     c-17.8-4.2-51.3-10-108.6-12.7C495.5,402.3,472.7,360.1,464.4,330.4z"></path>
			<path fill="#3B5C7A" d="M671.2,384.6h-82.7c-2.7,0-4.9-2.2-4.9-4.9v-42.2c0-2.7,2.2-4.9,4.9-4.9h82.7c2.7,0,4.9,2.2,4.9,4.9v42.2     C676.1,382.4,673.9,384.6,671.2,384.6z"></path>
			
				<ellipse transform="matrix(0.3809 -0.9246 0.9246 0.3809 45.3074 785.1225)" fill="#E0A23C" cx="608.9" cy="358.7" rx="7.6" ry="7.6"></ellipse>
		</g>
	</g>
	<g>
		<g>
			<g>
				<path fill="#558283" d="M399.8,456.8h2.2l-14-128c-0.1-1.1-1-1.9-2.2-1.9h-72.1c-1.1,0-2,0.8-2.2,1.9l-14,128h2.2L315.5,337      c0.1-1.1,1.1-1.9,2.1-1.9H382c1.1,0,2,0.8,2.1,1.9L399.8,456.8z"></path>
				<polygon fill="#558283" points="388.4,352.2 311.3,352.2 314.1,332.3 385.5,332.3     "></polygon>
				<rect x="303.2" y="418.1" fill="#558283" width="93.2" height="3.2"></rect>
			</g>
			<g>
				<g>
					<path fill="#ECB752" d="M426.1,447.3c1.8,2.4,4.5,3.1,6.9,4c2.4,0.9,2.9,4.1,4.5,6.5c1.6,2.4,3.8,3.8,7.5,3.2       c3.7-0.6,11.5-2.5,12.6-5.8c0.1-0.4,0.2-0.8,0.2-1.1c0-2.6-3.1-4.2-5.7-6.2c-3-2.2-6.2-5.7-10-9.1c-3.8-3.4-5.1-11.7-5.1-11.7       l-12.8,3.3c1,3.4,2,6.2,1.6,8.1c-0.2,1.2-0.6,2.4-0.6,5C425.2,445,425.4,446.4,426.1,447.3z"></path>
					<path fill="#B19072" d="M426.1,447.3c1.8,2.4,4.5,3.1,6.9,4c2.4,0.9,2.9,4.1,4.5,6.5c1.6,2.4,3.8,3.8,7.5,3.2       c3.7-0.6,11.5-2.5,12.6-5.8c0.1-0.4,0.2-0.8,0.2-1.1c-4.2,2.3-10.6,3.9-13.6,3.7c-3.1-0.2-7.8-4.8-9.1-6.5       c-1.4-1.7-3.9-2.3-6.2-3.6c-2.3-1.3-3.7-4.3-3.7-4.3C425.2,445,425.4,446.4,426.1,447.3z"></path>
				</g>
				<path fill="#FFFFFF" d="M427.3,429.8c0,0,9.2,16.4,13.7,14.3c4.5-2.2,0-6.8,0-6.8s-3.7-5.6-4.1-10.3L427.3,429.8z"></path>
				<g>
					<path fill="#ECB752" d="M330.7,447.3c1.3,2.6,3.9,3.9,6.1,5.1c2.3,1.3,2.1,4.6,3.3,7.2c1.2,2.7,3.1,4.4,6.9,4.5       c3.8,0,11.8-0.5,13.4-3.5c0.2-0.4,0.3-0.7,0.4-1.1c0.5-2.6-2.3-4.7-4.5-7c-2.6-2.7-5.1-6.7-8.3-10.7c-3.2-4-1.9-8.1-1.9-8.1       l-10.8-3.7c-0.7,5.2-1.9,5.2-2.7,7.1c-0.5,1.2-1.6,3.8-2,6.3C330.2,444.9,330.2,446.3,330.7,447.3z"></path>
					<path fill="#B19072" d="M330.7,447.3c1.3,2.6,3.9,3.9,6.1,5.1c2.3,1.3,2.1,4.6,3.3,7.2c1.2,2.7,3.1,4.4,6.9,4.5       c3.8,0,11.8-0.5,13.4-3.5c0.2-0.4,0.3-0.7,0.4-1.1c-4.6,1.5-11.1,2-14.1,1.3c-3-0.7-6.8-6-7.8-8c-1-1.9-3.4-3-5.4-4.6       c-2-1.6-2.9-4.8-2.9-4.8C330.2,444.9,330.2,446.3,330.7,447.3z"></path>
				</g>
				<path fill="#25405C" d="M385.8,318.2c0,0,23.7,19.4,30.9,29.8c7.1,10.4,22.8,81.2,22.8,81.2s-4.9,4.6-15.9,4.9      c0,0-22.3-43.9-27.2-68.9l-45.8-27.5l-11.7-21.9l40.5-6L385.8,318.2z"></path>
				<path fill="#25405C" d="M313.9,338.9c2.7,7.8,10,8.7,14.1,8.9c11.2,0.6,28.1-5.5,28.1-5.5s9.4,3.8,9.9-6      c0.5-9.8-9.5-20.8-14.7-20.1c-5.2,0.7-32.4,3.8-32.4,3.8l-3.6-1.8C315.2,318.2,311.2,331,313.9,338.9z"></path>
				<path fill="#ECB752" d="M379.1,308.3c0.5,4.5,2.4,6.7-2.9,6.9c0,0-5.2-2-27.7,3.7c-16.3,4.1-35.9,1.6-33.7-0.9      c4.6-27-1.7-43.7-1.7-43.7c-0.9-21.3-8.7-30.6-7.2-35c0.5-1.6,4.9-4.1,10.3-6.7c5.3-2.5,11.7-5.1,16.1-6.8l15.3-6.6l12.7,5.1      c6.6,2.5,15.9,8.4,20.3,12.8c5.7,5.7-2.2,10.3-3,23.2C377.1,267.3,378.7,304.8,379.1,308.3z"></path>
				<path fill="#ECB752" d="M393.1,309.9L393.1,309.9C393,309.9,393,309.9,393.1,309.9c-10.2-1.3-24.2-43-23.9-54.5l19-15.8      c0,0,4.1,10.2,8.4,52C398.3,308.6,399.9,309.9,393.1,309.9z"></path>
				<path fill="#ECB752" d="M396.5,291.7c5.5,0.8,32.2,6.1,32.2,6.1s0.5,7.6-1.1,9.9c0,0-35.1,0.3-40-0.1c-5-0.4-10.1-13.3-12-22.7"></path>
				<g>
					<path fill="#E79A43" d="M374,247.5c1.2,4.4,2.2,8.8,3.1,13.2c0.9,4.5,1.8,8.9,2,13.5c0.2,4.6-0.1,9.1-0.3,13.6       c-0.1,2.3-0.3,4.5-0.3,6.8c0,2.3-0.1,4.5,0.2,6.8c-0.3-1.1-0.5-2.2-0.6-3.4c-0.2-1.1-0.2-2.3-0.3-3.4c-0.1-2.3-0.2-4.5-0.1-6.8       c0-4.5,0.3-9.1,0.3-13.5c-0.1-2.2-0.3-4.5-0.6-6.7c-0.3-2.2-0.6-4.5-1-6.7C375.5,256.4,374.8,251.9,374,247.5z"></path>
				</g>
				<path fill="#FBC8C7" d="M334.7,224.6c9.5,2.4,23.2-1.3,23.2-1.3c-1.4-1-2-4.3-2.1-7.7c-0.1-2.5,0-5.1,0.1-7      c0.1-1.6,0.2-2.6,0.2-2.6l-19.9-12.6c2,12,1.6,22.1,0.4,27.4C336.2,223.2,334.7,224.6,334.7,224.6z"></path>
				<path fill="#FB929C" d="M343.9,209.4c0,0,5.5,7.8,11.9,11.5c-0.1-2.5,0-5.1,0.1-7L343.9,209.4z"></path>
				<path fill="#ECB752" d="M333.6,225.1c0,0,3-2.9,3.3-5.7c0,0,4.4,3.7,11.7,3.1c0,0,0.1,2,0.7,2c0.6,0.1,0.7-2.1,0.7-2.1      s4.5-0.6,6.1-3.1c0,0,1.8,4.2,4.1,4.8c0,0-3.2,1.5-10.4,2.5C342.7,227.7,333.6,225.1,333.6,225.1z"></path>
				<g>
					<path fill="#FFFFFF" d="M348.3,229.8c0,0-6.2,51.1-5.7,58.9c0.5,7.8,6.6,23.2,8.6,23.9s6.4-16.1,7.3-23.1       c0.9-7-7.4-59.8-7.4-59.8"></path>
					<path fill="#FFFFFF" d="M347.5,223.2c0.8-0.5,3-0.6,3.8-0.2c0.8,0.4,1.7,2.7,1.8,3.4c0.1,0.7-1.4,2.9-2,3.7       c-1.1,0.3-2.8,0.1-2.8,0.1s-1.9-2-2.1-4C346,225.3,346.8,223.6,347.5,223.2z"></path>
				</g>
				<path fill="#FBC8C7" d="M371.6,184.1c0,0,2.8,28.9-7.8,35.3c-4.8,2.9-20.3-10.3-20.3-10.3s-10.2-8.8-8.4-19      C338.4,170.9,368.6,164.9,371.6,184.1z"></path>
				<path fill="#162838" d="M376.7,173.1c-0.3-0.2-2.8,1.7-10.9-4.8c-3.3-2.6-9.3-3.9-16.1-2.3c-6,1.5-7.8,6.3-7.8,6.3      s-4.7-1-8.5,3.8c-8.3,10.5,2.6,34.7,4,35c1.4,0.4-3.4-17.1,3.1-18.8c6.3-1.6,7.1,10.2,7.8,9.6c0.6-0.6-0.1-8.7,0.6-10.5      c0.2-0.5,1.3-1.3,2.6-1.2c3.1,0.4,2.5-4.9,5.1-5.7c1.6-0.5,6.6-0.4,10,0.5C379.8,188.7,381.3,176.3,376.7,173.1z"></path>
				<path fill="#FBC8C7" d="M370.6,300.3c-1-0.4-7.8-2-9.3-1.8c-1.5,0.2-6.1,0-7.7,0c-1.6,0-6.6-0.6-6.6-0.6l0.6,7.7      c1.5-0.2,3.5,0.6,4.6,0.8c1.1,0.1,4.7,0.2,7-1c0.1-0.1,0.2-0.1,0.4-0.2c0.9,0.8,2,1.6,3.3,1.6c0,0,1-0.1,0.9-0.5      c0-0.2-0.7-1.2-1.3-2.2c1,1,2.5,2.6,4.4,2.7c0,0,1-0.1,0.9-0.5c-0.1-0.2-1-1.6-1.8-2.8c0,0,0,0,0,0c0.8,0.7,2.7,3.1,4.9,3.2      c0,0,1-0.1,0.9-0.5c0-0.1-0.4-0.7-0.9-1.4c0.6,0.4,1.3,0.9,2.1,1.3c2.4,1.2,3.8,0.3,3.8,0C376.8,305.9,371.7,300.7,370.6,300.3z      "></path>
				<path fill="#3E6868" d="M431.1,307.9h-79.3v-2.5c0-0.5,0.4-0.8,0.8-0.8h77.7c0.5,0,0.8,0.4,0.8,0.8V307.9z"></path>
				<path fill="#ECB752" d="M306.5,238.3c-8.2,9-10.4,32.7-7.8,52.3c1,8,0.6,17.7,12.5,17.7c9.2,0,37-0.4,37-0.4      c1.6-3.5,1.2-10.1,1.2-10.1l-32.3-6.2c0,0,0-27.5-2-34.1"></path>
				<g>
					<path fill="#E79A43" d="M317,257.2c0.3,2.9,0.5,5.7,0.7,8.6c0.2,2.9,0.3,5.7,0.4,8.6c0.1,2.9,0.1,5.7,0,8.6       c-0.1,2.9-0.2,5.8-0.5,8.6l-0.5-0.7c3.6,0.8,7.3,1.6,10.9,2.4l5.5,1.2l5.5,1.3c-1.9-0.1-3.7-0.4-5.6-0.6l-5.5-0.9       c-3.7-0.6-7.3-1.3-11-2.1l-0.6-0.1l0.1-0.6c0.3-2.8,0.5-5.7,0.6-8.5c0.1-2.9,0.1-5.7,0.2-8.6c0-2.9,0-5.7,0-8.6L317,257.2z"></path>
				</g>
				<g>
					<path fill="#E79A43" d="M316.9,292.3c-2-0.4-4.1-0.7-6.2-0.7c2.1-0.3,4.2-0.5,6.3-0.6L316.9,292.3z"></path>
				</g>
				<path fill="#E58D3D" d="M348.6,222.6c0,0-1.1,2.9-1.6,6c-0.2,0.3-10.3-1.8-13-3.9c0,0,2-4.6,2.9-5.2      C336.9,219.5,341.2,221.5,348.6,222.6z"></path>
				<path fill="#E58D3D" d="M350.1,222.5c0,0,1.9,3.9,2.3,5.7c0.9,0,7.2-4,7.4-4.2c0.2-0.2-3.2-4.7-3.6-4.7      C356,219.8,353.8,221,350.1,222.5z"></path>
				<g>
					<path fill="#FB929C" d="M340.1,204.6c0.2,1.2,1.1,2,2.5,2.6C340.9,207.4,339.6,205.8,340.1,204.6L340.1,204.6z"></path>
				</g>
				<path fill="#FB929C" d="M339.5,196c0.6-0.7,1.9-0.6,2.6-0.2c0.8,0.4,1.4,1.1,1.9,1.8c0.4,0.7,0.6,1.5,0.6,2.3      c0,0.8-0.1,1.8-0.7,2.3c-0.1,0.1-0.3,0.1-0.3-0.1c0-0.4,0.2-0.7,0.2-1.1c0.1-0.3,0.1-0.7,0.1-1.1c0-0.7-0.2-1.4-0.5-2.1      c0-0.1-0.1-0.1-0.1-0.1c0,0,0,0,0,0c-0.6,0.3-1.2,0.7-1.7,1.3c-0.5,0.6-0.7,1.3-0.9,2c0,0-0.1,0.1-0.1,0.1      c-0.3-0.8,0-1.7,0.5-2.4c0.5-0.7,1.1-1.1,1.8-1.5c-0.3-0.4-0.6-0.7-1.1-1c-0.8-0.5-1.6-0.4-2.4-0.2      C339.5,196.3,339.4,196.2,339.5,196z"></path>
				<g>
					<path fill="#18185E" d="M357.1,196.1c0,0.8,0.5,1.5,1.2,1.5c0.7,0,1.2-0.7,1.2-1.5c0-0.8-0.5-1.5-1.2-1.5       C357.7,194.6,357.1,195.3,357.1,196.1z"></path>
					<path fill="#18185E" d="M368,196.9c0,0.8,0.5,1.4,1.1,1.4c0.6,0,1.1-0.6,1.1-1.4c0-0.8-0.5-1.4-1.1-1.4       C368.5,195.5,368,196.1,368,196.9z"></path>
					<g>
						<path fill="#18185E" d="M356,193.2c0.1-0.1,0.1-0.2,0.2-0.3c0.1-0.1,0.3-0.3,0.4-0.4c0.3-0.3,0.8-0.5,1.3-0.6        c0.3,0,0.5,0,0.8,0c0.3,0,0.5,0.1,0.8,0.2c0.2,0.1,0.4,0,0.5-0.2c0.1-0.2,0-0.4-0.2-0.5c0.2,0.2,0.2,0.2,0.1,0.1        c0,0-0.1,0-0.1-0.1c0,0-0.1,0-0.1-0.1c-0.1,0-0.2-0.1-0.3-0.1c-0.2-0.1-0.4-0.1-0.6-0.1c-0.4-0.1-0.8-0.1-1.2,0        c-0.5,0.1-1,0.5-1.4,0.9c-0.1,0.1-0.2,0.3-0.2,0.4C356,192.7,355.9,193,356,193.2C355.9,193.2,356,193.2,356,193.2L356,193.2z        "></path>
					</g>
					<g>
						<path fill="#18185E" d="M371.3,194.1c0-0.4-0.1-0.7-0.3-1c-0.3-0.4-0.6-0.7-1.1-0.8c-0.7-0.3-1.5-0.2-2.2,0.1        c-0.2,0.1-0.3,0.3-0.2,0.5c0.1,0.2,0.3,0.2,0.5,0.2c0,0-0.1,0-0.1,0c0,0,0.1,0,0.1,0c0,0,0.1,0,0.1,0c0.1,0,0.1,0,0.2,0        c0.2,0,0.3-0.1,0.5-0.1c0.3,0,0.6,0,0.9,0.1c0.3,0.1,0.7,0.3,1,0.5c0.1,0.1,0.3,0.2,0.4,0.3        C371.1,193.9,371.2,194,371.3,194.1C371.3,194.2,371.3,194.2,371.3,194.1L371.3,194.1z"></path>
					</g>
					<g>
						<path fill="#FB929C" d="M364.5,194.8c0,0.7,0.1,1.3,0.2,1.9c0.1,0.7,0.2,1.3,0.3,2c0.2,1.3,0.3,2.6,0.5,3.9        c0.1,0.6,0.1,1.2,0.1,1.8c0,0.6-0.2,1.1-0.9,1.3c-0.6,0.2-1.2,0.2-1.8,0.2c-0.3,0-0.6,0-0.9-0.1c-0.2,0-0.5-0.1-0.7-0.1        c-0.1,0-0.1,0.2,0,0.2c0.3,0.2,0.8,0.3,1.1,0.3c0.6,0.1,1.1,0.1,1.7,0c0.9-0.1,1.8-0.3,2-1.3c0.1-0.5,0-0.9,0-1.4        c0-0.6-0.1-1.2-0.2-1.8c-0.1-1.1-0.3-2.2-0.4-3.4c-0.2-1.2-0.4-2.5-0.8-3.7C364.6,194.7,364.5,194.7,364.5,194.8L364.5,194.8z        "></path>
					</g>
					<g>
						<path fill="#FB929C" d="M356.7,207.3c-0.1,0.2,0.1,0.5,0.2,0.7c0.1,0.3,0.4,0.5,0.6,0.7c0.4,0.4,0.9,0.7,1.4,0.9        c0.5,0.3,1,0.4,1.6,0.6c0.2,0.1,0.5,0.1,0.7,0.1c0.3,0,0.6,0.1,0.9-0.1c0.2-0.2,0.2-0.5,0-0.7c-0.2-0.2-0.5-0.1-0.8-0.2        c-0.5-0.1-1.1-0.2-1.6-0.4c-0.5-0.2-0.9-0.4-1.3-0.7c-0.2-0.1-0.5-0.3-0.7-0.5c-0.2-0.2-0.5-0.4-0.7-0.6        C356.9,207.1,356.8,207.2,356.7,207.3L356.7,207.3z"></path>
					</g>
				</g>
				<path fill="#E58D3D" d="M322.4,249c0.4-0.1,18.1-0.6,18.1-0.6v3.2l-9,3.9l-9-2.6V249z"></path>
				<g>
					<path fill="#E58D3D" d="M322.4,251c0.1,1.1,0.2,2.2,0.3,3.3c0.1,1.1,0.2,2.2,0.2,3.3l0.4,6.5l-0.3-0.4       c3.9,1.1,7.7,2.2,11.6,3.4l-0.4,0.1c2-1.6,4.1-3.2,6.1-4.7l-0.1,0.3l0.1-5.6c0.1-1.9,0.1-3.7,0.2-5.6c0.1,1.9,0.2,3.7,0.2,5.6       l0.1,5.6l0,0.2l-0.2,0.1c-2,1.6-4,3.3-6,4.9l-0.2,0.2l-0.2-0.1c-3.9-1.1-7.7-2.3-11.6-3.5l-0.3-0.1l0-0.3l-0.1-6.5       c0-1.1,0-2.2,0-3.3C322.4,253.2,322.4,252.1,322.4,251z"></path>
				</g>
				<path fill="#E58D3D" d="M358.2,249c0.4-0.1,18.1-0.6,18.1-0.6v3.2l-9,3.9l-9-2.6V249z"></path>
				<g>
					<path fill="#E58D3D" d="M358.2,251c0.1,1.1,0.2,2.2,0.3,3.3c0.1,1.1,0.2,2.2,0.2,3.3l0.4,6.5l-0.3-0.4       c3.9,1.1,7.7,2.2,11.6,3.4l-0.4,0.1c2-1.6,4.1-3.2,6.1-4.7l-0.1,0.3l0.1-5.6c0.1-1.9,0.1-3.7,0.2-5.6c0.1,1.9,0.2,3.7,0.2,5.6       l0.1,5.6l0,0.2l-0.2,0.1c-2,1.6-4,3.3-6,4.9l-0.2,0.2l-0.2-0.1c-3.9-1.1-7.7-2.3-11.6-3.5l-0.3-0.1l0-0.3l-0.1-6.5       c0-1.1,0-2.2,0-3.3C358.2,253.2,358.2,252.1,358.2,251z"></path>
				</g>
			</g>
			<path fill="#FFFFFF" d="M334.5,433.3c0,0,4.9,13.8,10.1,13.7c5.2-0.1,3.4-5.3,3.4-5.3s-3-3.2-1.9-8.1l-10.8-3.7L334.5,433.3z"></path>
		</g>
		<g>
			<path fill="#558283" d="M527.1,458.2h-4.4c-0.7,0-1.3-0.5-1.4-1.1l-34.4-133.2l-2-7.6H505l1.3,7.6l22.2,132.6     C528.7,457.4,528,458.2,527.1,458.2z"></path>
			<path fill="#558283" d="M257.2,316.3l-2,7.6l-34.4,133.2c-0.2,0.6-0.8,1.1-1.4,1.1H215c-0.9,0-1.6-0.8-1.5-1.7l22.2-132.6     l1.3-7.6H257.2z"></path>
			<polygon fill="#3E6868" points="237.1,316.3 257.2,316.3 255.3,323.9 235.8,323.9    "></polygon>
			<polygon fill="#3E6868" points="506.3,323.9 486.9,323.9 484.9,316.3 505,316.3    "></polygon>
			<g id="XMLID_609_">
				<path id="XMLID_27_" fill="#558283" d="M213,316.3h319.1c2.3,0,4.2-1.9,4.2-4.2l0,0c0-2.3-1.9-4.2-4.2-4.2H213      c-2.3,0-4.2,1.9-4.2,4.2l0,0C208.8,314.4,210.7,316.3,213,316.3z"></path>
				<path fill="#3E6868" d="M536.3,312.1c0,2.3-1.9,4.2-4.2,4.2H213c-1.2,0-2.2-0.5-3-1.2c-0.8-0.8-1.2-1.8-1.2-3H536.3z"></path>
			</g>
		</g>
		<g>
			<path fill="#558283" d="M484.4,275.9H379.2c-1.4,0-2.4-1.2-2.3-2.6l9.3-70.7c0.1-1.1,1.1-2,2.3-2h105.2c1.4,0,2.4,1.2,2.3,2.6     l-9.3,70.7C486.5,275.1,485.6,275.9,484.4,275.9z"></path>
			<path fill="#FFFFFF" d="M488.4,275.9H383.1c-1.4,0-2.4-1.2-2.3-2.6l9.3-70.7c0.1-1.1,1.1-2,2.3-2h105.2c1.4,0,2.4,1.2,2.3,2.6     l-9.3,70.7C490.5,275.1,489.5,275.9,488.4,275.9z"></path>
			<path fill="#BBCECF" d="M440.8,307.9h-20.9l10.7-81.9c0.1-1.1,1-1.9,2.1-1.9h16.6c1.3,0,2.3,1.1,2.1,2.4L440.8,307.9z"></path>
			<path fill="#558283" d="M443.5,307.9h-20.9l10.7-81.9c0.1-1.1,1.1-1.9,2.1-1.9h16.6c1.3,0,2.3,1.1,2.1,2.4L443.5,307.9z"></path>
			<path fill="#558283" d="M465.3,307.9h-67v-1.8c0-1,0.8-1.8,1.8-1.8h63.3c1,0,1.8,0.8,1.8,1.8V307.9z"></path>
		</g>
		<g>
			<g>
				
					<rect x="514.4" y="243" transform="matrix(-0.9996 -2.779220e-02 2.779220e-02 -0.9996 1028.0048 558.5033)" fill="#FFFFFF" width="7" height="58.3"></rect>
				<g>
					
						<rect x="515.2" y="244.9" transform="matrix(-0.9996 -2.783083e-02 2.783083e-02 -0.9996 1025.937 504.6349)" fill="#BABABA" width="2.7" height="0.5"></rect>
					
						<rect x="515.1" y="246.2" transform="matrix(-0.9996 -2.782967e-02 2.782967e-02 -0.9996 1025.8303 507.1956)" fill="#BABABA" width="2.7" height="0.5"></rect>
					
						<rect x="515.1" y="247.5" transform="matrix(-0.9996 -2.783188e-02 2.783188e-02 -0.9996 1025.7229 509.758)" fill="#BABABA" width="2.7" height="0.5"></rect>
					
						<rect x="515" y="250.1" transform="matrix(-0.9996 -2.783083e-02 2.783083e-02 -0.9996 1025.5093 514.88)" fill="#BABABA" width="2.7" height="0.5"></rect>
					
						<rect x="515" y="251.3" transform="matrix(-0.9996 -2.783188e-02 2.783188e-02 -0.9996 1025.4021 517.4418)" fill="#BABABA" width="2.7" height="0.5"></rect>
					
						<rect x="514.9" y="252.6" transform="matrix(-0.9996 -2.779320e-02 2.779320e-02 -0.9996 1025.3054 519.9835)" fill="#BABABA" width="2.7" height="0.5"></rect>
					
						<rect x="514.9" y="255.2" transform="matrix(-0.9996 -2.775557e-02 2.775557e-02 -0.9996 1025.1018 525.0866)" fill="#BABABA" width="2.7" height="0.5"></rect>
					
						<rect x="514.8" y="256.5" transform="matrix(-0.9996 -2.775557e-02 2.775557e-02 -0.9996 1024.995 527.6479)" fill="#BABABA" width="2.7" height="0.5"></rect>
					
						<rect x="514.8" y="257.7" transform="matrix(-0.9996 -2.779436e-02 2.779436e-02 -0.9996 1024.8776 530.2289)" fill="#BABABA" width="2.7" height="0.5"></rect>
					
						<rect x="514.7" y="260.3" transform="matrix(-0.9996 -2.783188e-02 2.783188e-02 -0.9996 1024.6534 535.3707)" fill="#BABABA" width="2.7" height="0.5"></rect>
					
						<rect x="514.7" y="261.6" transform="matrix(-0.9996 -2.779215e-02 2.779215e-02 -0.9996 1024.5575 537.9117)" fill="#BABABA" width="2.7" height="0.5"></rect>
					
						<rect x="514.7" y="262.9" transform="matrix(-0.9996 -2.782978e-02 2.782978e-02 -0.9996 1024.4402 540.4921)" fill="#BABABA" width="2.7" height="0.5"></rect>
					
						<rect x="514.6" y="265.4" transform="matrix(-0.9996 -2.783095e-02 2.783095e-02 -0.9996 1024.226 545.6154)" fill="#BABABA" width="2.7" height="0.5"></rect>
					
						<rect x="514.5" y="266.7" transform="matrix(-0.9996 -2.779425e-02 2.779425e-02 -0.9996 1024.1293 548.1579)" fill="#BABABA" width="2.7" height="0.5"></rect>
					
						<rect x="514.5" y="268" transform="matrix(-0.9996 -2.779309e-02 2.779309e-02 -0.9996 1024.0227 550.7186)" fill="#BABABA" width="2.7" height="0.5"></rect>
					
						<rect x="514.4" y="270.6" transform="matrix(-0.9996 -2.779425e-02 2.779425e-02 -0.9996 1023.8087 555.8417)" fill="#BABABA" width="2.7" height="0.5"></rect>
					
						<rect x="514.4" y="271.8" transform="matrix(-0.9996 -2.779320e-02 2.779320e-02 -0.9996 1023.702 558.4024)" fill="#BABABA" width="2.7" height="0.5"></rect>
					
						<rect x="514.4" y="273.1" transform="matrix(-0.9996 -2.775661e-02 2.775661e-02 -0.9996 1023.6057 560.9451)" fill="#BABABA" width="2.7" height="0.5"></rect>
					
						<rect x="514.3" y="275.7" transform="matrix(-0.9996 -2.779215e-02 2.779215e-02 -0.9996 1023.3817 566.0856)" fill="#BABABA" width="2.7" height="0.5"></rect>
					
						<rect x="514.3" y="277" transform="matrix(-0.9996 -2.783083e-02 2.783083e-02 -0.9996 1023.2635 568.6666)" fill="#BABABA" width="2.7" height="0.5"></rect>
					
						<rect x="514.2" y="278.2" transform="matrix(-0.9996 -2.782978e-02 2.782978e-02 -0.9996 1023.1569 571.2274)" fill="#BABABA" width="2.7" height="0.5"></rect>
					
						<rect x="514.2" y="280.8" transform="matrix(-0.9996 -2.783083e-02 2.783083e-02 -0.9996 1022.9426 576.3504)" fill="#BABABA" width="2.7" height="0.5"></rect>
					
						<rect x="514.1" y="282.1" transform="matrix(-0.9996 -2.783083e-02 2.783083e-02 -0.9996 1022.8357 578.9117)" fill="#BABABA" width="2.7" height="0.5"></rect>
					
						<rect x="514.1" y="283.4" transform="matrix(-0.9996 -2.783200e-02 2.783200e-02 -0.9996 1022.7285 581.4736)" fill="#BABABA" width="2.7" height="0.5"></rect>
					
						<rect x="514" y="285.9" transform="matrix(-0.9996 -2.779425e-02 2.779425e-02 -0.9996 1022.5258 586.577)" fill="#BABABA" width="2.7" height="0.5"></rect>
					
						<rect x="514" y="287.2" transform="matrix(-0.9996 -2.783095e-02 2.783095e-02 -0.9996 1022.4078 589.1569)" fill="#BABABA" width="2.7" height="0.5"></rect>
					
						<rect x="513.9" y="288.5" transform="matrix(-0.9996 -2.786846e-02 2.786846e-02 -0.9996 1022.2896 591.7371)" fill="#BABABA" width="2.7" height="0.5"></rect>
					
						<rect x="513.9" y="291.1" transform="matrix(-0.9996 -2.779227e-02 2.779227e-02 -0.9996 1022.0989 596.821)" fill="#BABABA" width="2.7" height="0.5"></rect>
					
						<rect x="513.8" y="292.3" transform="matrix(-0.9996 -2.775766e-02 2.775766e-02 -0.9996 1022.0028 599.3647)" fill="#BABABA" width="2.7" height="0.5"></rect>
					
						<rect x="513.8" y="293.6" transform="matrix(-0.9996 -2.779215e-02 2.779215e-02 -0.9996 1021.8853 601.9434)" fill="#BABABA" width="2.7" height="0.5"></rect>
					
						<rect x="513.7" y="296.2" transform="matrix(-0.9996 -2.783188e-02 2.783188e-02 -0.9996 1021.6592 607.0862)" fill="#BABABA" width="2.7" height="0.5"></rect>
					
						<rect x="513.7" y="297.5" transform="matrix(-0.9996 -2.779320e-02 2.779320e-02 -0.9996 1021.5642 609.6279)" fill="#BABABA" width="2.7" height="0.5"></rect>
					
						<rect x="513.7" y="298.8" transform="matrix(-0.9996 -2.779425e-02 2.779425e-02 -0.9996 1021.457 612.1897)" fill="#BABABA" width="2.7" height="0.5"></rect>
				</g>
				<g>
					
						<rect x="513.8" y="294.9" transform="matrix(-0.9996 -2.781075e-02 2.781075e-02 -0.9996 1022.9923 604.5651)" fill="#BABABA" width="3.9" height="0.5"></rect>
					
						<rect x="513.6" y="300.1" transform="matrix(-0.9996 -2.781147e-02 2.781147e-02 -0.9996 1022.5644 614.8105)" fill="#BABABA" width="3.9" height="0.5"></rect>
					
						<rect x="515.2" y="243.7" transform="matrix(-0.9996 -2.781003e-02 2.781003e-02 -0.9996 1027.2689 502.114)" fill="#BABABA" width="3.9" height="0.5"></rect>
					
						<rect x="515" y="248.8" transform="matrix(-0.9996 -2.778561e-02 2.778561e-02 -0.9996 1026.8478 512.3466)" fill="#BABABA" width="3.9" height="0.5"></rect>
					
						<rect x="514.9" y="253.9" transform="matrix(-0.9996 -2.778569e-02 2.778569e-02 -0.9996 1026.4202 522.5917)" fill="#BABABA" width="3.9" height="0.5"></rect>
					
						<rect x="514.8" y="259" transform="matrix(-0.9996 -2.781147e-02 2.781147e-02 -0.9996 1025.9857 532.8499)" fill="#BABABA" width="3.9" height="0.5"></rect>
					
						<rect x="514.6" y="264.2" transform="matrix(-0.9996 -2.781075e-02 2.781075e-02 -0.9996 1025.5582 543.0946)" fill="#BABABA" width="3.9" height="0.5"></rect>
					
						<rect x="514.5" y="269.3" transform="matrix(-0.9996 -2.783724e-02 2.783724e-02 -0.9996 1025.1229 553.3532)" fill="#BABABA" width="3.9" height="0.5"></rect>
					
						<rect x="514.3" y="274.4" transform="matrix(-0.9996 -2.781147e-02 2.781147e-02 -0.9996 1024.7026 563.5852)" fill="#BABABA" width="3.9" height="0.5"></rect>
					
						<rect x="514.2" y="279.5" transform="matrix(-0.9996 -2.781147e-02 2.781147e-02 -0.9996 1024.2749 573.8303)" fill="#BABABA" width="3.9" height="0.5"></rect>
					
						<rect x="514" y="284.7" transform="matrix(-0.9996 -2.778569e-02 2.778569e-02 -0.9996 1023.855 584.0622)" fill="#BABABA" width="3.9" height="0.5"></rect>
					
						<rect x="513.9" y="289.8" transform="matrix(-0.9996 -2.781075e-02 2.781075e-02 -0.9996 1023.4199 594.32)" fill="#BABABA" width="3.9" height="0.5"></rect>
				</g>
			</g>
			<g>
				
					<rect x="520.5" y="257.5" transform="matrix(-0.9872 -0.1592 0.1592 -0.9872 992.9999 636.179)" fill="#F2D23A" width="2.9" height="41.6"></rect>
				
					<rect x="523.9" y="257.2" transform="matrix(-0.9872 -0.1593 0.1593 -0.9872 1002.9515 595.4324)" fill="#8D725F" width="2.9" height="0.5"></rect>
				<path fill="#F2D23A" d="M523.9,257l2.9,0.5l0.1-0.4c0.1-0.8-0.4-1.6-1.2-1.7l0,0c-0.8-0.1-1.6,0.4-1.7,1.2L523.9,257z"></path>
				<polygon fill="#D09271" points="517.2,298.6 517.7,300.3 518.1,302.1 519.2,300.5 520.1,299.1     "></polygon>
				<path fill="#F2D23A" d="M517.7,300.3l0.5,1.9l1-1.6c-0.2-0.1-0.5-0.2-0.7-0.3C518.2,300.2,517.9,300.2,517.7,300.3z"></path>
				
					<rect x="520.5" y="257.4" transform="matrix(-0.9872 -0.1593 0.1593 -0.9872 991.5611 635.8589)" fill="#E2A32E" width="1.5" height="41.6"></rect>
				
					<rect x="521.3" y="257.5" transform="matrix(-0.9872 -0.1593 0.1593 -0.9872 992.98 636.2054)" fill="#ECB648" width="1.5" height="41.6"></rect>
			</g>
			<g>
				
					<rect x="503.7" y="256.6" transform="matrix(0.9871 -0.1604 0.1604 0.9871 -37.9562 84.6221)" fill="#F2D23A" width="2.9" height="41.6"></rect>
				
					<rect x="507.1" y="297.9" transform="matrix(0.9871 -0.1604 0.1604 0.9871 -41.2469 85.4335)" fill="#8D725F" width="2.9" height="0.5"></rect>
				<path fill="#CB6141" d="M510,298.2l-2.9,0.5l0.1,0.4c0.1,0.8,0.9,1.3,1.7,1.2l0,0c0.8-0.1,1.3-0.9,1.2-1.7L510,298.2z"></path>
				<polygon fill="#D09271" points="503.3,256.7 502.3,255.2 501.3,253.6 500.8,255.4 500.4,257.1     "></polygon>
				<path fill="#F2D23A" d="M502.3,255.2l-1-1.6l-0.5,1.8c0.2,0.1,0.5,0.1,0.8,0C501.9,255.4,502.1,255.3,502.3,255.2z"></path>
				
					<rect x="505.1" y="256.5" transform="matrix(0.987 -0.1605 0.1605 0.987 -37.9421 84.7765)" fill="#E2A32E" width="1.5" height="41.6"></rect>
				
					<rect x="504.4" y="256.6" transform="matrix(0.9871 -0.1604 0.1604 0.9871 -37.9555 84.6201)" fill="#ECB648" width="1.5" height="41.6"></rect>
			</g>
			<g>
				
					<rect x="512.1" y="250.2" transform="matrix(0.9986 -5.378763e-02 5.378763e-02 0.9986 -13.8336 28.0176)" fill="#558283" width="2.9" height="41.6"></rect>
				
					<rect x="513.3" y="291.8" transform="matrix(0.9986 -5.375544e-02 5.375544e-02 0.9986 -14.9546 28.0919)" fill="#8D725F" width="2.9" height="0.5"></rect>
				<path fill="#CB6141" d="M516.2,292.2l-2.9,0.2l0,0.4c0,0.8,0.7,1.4,1.5,1.4l0,0c0.8,0,1.4-0.7,1.4-1.5L516.2,292.2z"></path>
				<polygon fill="#D09271" points="513.9,250.2 513.2,248.6 512.3,246.9 511.6,248.7 511,250.3     "></polygon>
				<path fill="#9BB4E6" d="M513.2,248.6l-0.9-1.7l-0.7,1.8c0.2,0.1,0.5,0.1,0.8,0.1C512.7,248.8,512.9,248.7,513.2,248.6z"></path>
				
					<rect x="513.6" y="250.2" transform="matrix(0.9985 -5.385937e-02 5.385937e-02 0.9985 -13.8479 28.0948)" fill="#558283" width="1.5" height="41.6"></rect>
				
					<rect x="512.9" y="250.2" transform="matrix(0.9986 -5.372323e-02 5.372323e-02 0.9986 -13.818 27.9836)" fill="#BBCECF" width="1.5" height="41.6"></rect>
			</g>
			<g>
				
					<rect x="505.4" y="253.8" transform="matrix(0.9927 -0.1206 0.1206 0.9927 -27.679 63.1447)" fill="#25405C" width="4.7" height="12.8"></rect>
				
					<rect x="508" y="266.5" transform="matrix(0.9927 -0.1207 0.1207 0.9927 -30.2038 63.6302)" fill="#C9D4E0" width="4.7" height="29.5"></rect>
				
					<rect x="506.3" y="267.3" transform="matrix(0.9927 -0.1206 0.1206 0.9927 -28.6154 63.3179)" fill="#25405C" width="4.7" height="1.4"></rect>
				
					<rect x="507.2" y="253.9" transform="matrix(0.9927 -0.1207 0.1207 0.9927 -29.4813 63.3167)" fill="#C9D4E0" width="1.6" height="42.3"></rect>
			</g>
			<g>
				<polygon fill="#BBCECF" points="524.8,278.4 522.3,305.8 522.1,307.9 506.2,307.9 503.4,278.4     "></polygon>
				<polygon fill="#FFFFFF" points="524.8,278.4 522.3,305.8 509,305.8 506.4,278.4     "></polygon>
			</g>
		</g>
		<g>
			<g>
				<path fill="#558283" d="M263.3,295.4c0,0-8.2-4.8-9.9-14.2c0,0,7.7,1.6,11.5,14.2"></path>
				<path fill="#558283" d="M266.5,295.4c0,0,8.2-4.8,9.9-14.2c0,0-7.7,1.6-11.5,14.2"></path>
				<path fill="#558283" d="M264,294.6c0,0-5.9-7.4-4.1-16.8c0,0,6.6,4.3,5.6,17.4"></path>
				<path fill="#558283" d="M265.9,294.6c0,0,5.7-7.5,3.7-16.9c0,0-6.5,4.4-5.2,17.5"></path>
			</g>
			<g>
				<rect x="255.8" y="293.5" fill="#25405C" width="17.8" height="14.9"></rect>
				<rect x="270.1" y="293.5" fill="#40617F" width="3.5" height="14.9"></rect>
			</g>
		</g>
		<path fill="#25405C" d="M362.6,347.5c1.6,1.7,9.4,7.5,6.3,17.1c-3.9,12-22.2,71.3-22.2,71.3s-13.6-0.4-13.5-4.8    c0,0-0.4-56.9,11.1-68.5"></path>
		<path fill="#25405C" d="M354.4,331c10.9,15.6,14.5,25.2,14.5,25.2s-5.3,7.9-25.3,7.9c0,0-28.4-11.9-30.5-28.7"></path>
		<line fill="none" stroke="#191C1E" stroke-miterlimit="10" x1="358.5" y1="332.3" x2="363.6" y2="345.5"></line>
	</g>
	<g>
		<g>
			<path fill="#C68424" d="M610.1,457.9c0,3.3-21.8,6-48.7,6c-26.9,0-48.7-2.7-48.7-6c0-0.2,0.1-0.4,0.2-0.5h-0.4v-7.9h97.3v7.9     C610,457.5,610.1,457.7,610.1,457.9z"></path>
			<path fill="#EAAF59" d="M531.2,449.4v13.2c-11.2-1.1-18.4-2.8-18.4-4.7c0-0.2,0.1-0.4,0.2-0.5h-0.4v-7.9H531.2z"></path>
			<path fill="#EAAF59" d="M610,457.9c0,2.4-11.3,4.4-27.6,5.4v-13.9h27.3v7.9C610,457.5,610,457.7,610,457.9z"></path>
			<path fill="#EAAF59" d="M559.2,449.4v14.5c-6.6,0-12.8-0.2-18.4-0.5v-13.9H559.2z"></path>
			<path fill="#EAAF59" d="M572.6,449.4v14.3c-3,0.1-6.1,0.1-9.2,0.2v-14.5H572.6z"></path>
			<path fill="#E0A23C" d="M609.6,449.4c0,3.3-21.8,6-48.7,6c-26.9,0-48.7-2.7-48.7-6c0-3.3,21.8-6,48.7-6     C587.8,443.4,609.6,446.1,609.6,449.4z"></path>
			<path fill="#C68424" d="M600.3,449.4c0,2.2-17.6,4-39.3,4c-21.7,0-39.3-1.8-39.3-4c0-2.2,17.6-4,39.3-4     C582.7,445.4,600.3,447.2,600.3,449.4z"></path>
		</g>
		<g>
			<path fill="#C68424" d="M602.3,448.5c0,3.3-21.8,6-48.7,6c-26.9,0-48.7-2.7-48.7-6c0-0.2,0.1-0.4,0.2-0.5h-0.4V440h97.3v7.9     C602.3,448.1,602.3,448.3,602.3,448.5z"></path>
			<path fill="#EAAF59" d="M523.4,440v13.2c-11.2-1.1-18.4-2.8-18.4-4.7c0-0.2,0.1-0.4,0.2-0.5h-0.4V440H523.4z"></path>
			<path fill="#EAAF59" d="M602.3,448.5c0,2.4-11.3,4.4-27.6,5.4V440h27.3v7.9C602.3,448.1,602.3,448.3,602.3,448.5z"></path>
			<path fill="#EAAF59" d="M551.5,440v14.5c-6.6,0-12.8-0.2-18.4-0.5V440H551.5z"></path>
			<path fill="#EAAF59" d="M564.9,440v14.3c-3,0.1-6.1,0.1-9.2,0.2V440H564.9z"></path>
			<path fill="#E0A23C" d="M601.9,440c0,3.3-21.8,6-48.7,6c-26.9,0-48.7-2.7-48.7-6c0-3.3,21.8-6,48.7-6     C580.1,434,601.9,436.7,601.9,440z"></path>
			<ellipse fill="#C68424" cx="553.3" cy="440" rx="39.3" ry="4"></ellipse>
		</g>
		<g>
			<path fill="#C68424" d="M617.2,440.2c0,3.3-21.8,6-48.7,6c-26.9,0-48.7-2.7-48.7-6c0-0.2,0.1-0.4,0.2-0.5h-0.4v-7.9H617v7.9     C617.2,439.8,617.2,440,617.2,440.2z"></path>
			<path fill="#EAAF59" d="M538.3,431.7v13.2c-11.2-1.1-18.4-2.8-18.4-4.7c0-0.2,0.1-0.4,0.2-0.5h-0.4v-7.9H538.3z"></path>
			<path fill="#EAAF59" d="M617.2,440.2c0,2.4-11.3,4.4-27.6,5.4v-13.9H617v7.9C617.2,439.8,617.2,440,617.2,440.2z"></path>
			<path fill="#EAAF59" d="M566.4,431.7v14.5c-6.6,0-12.8-0.2-18.4-0.5v-13.9H566.4z"></path>
			<path fill="#EDB769" d="M579.8,431.7V446c-3,0.1-6.1,0.1-9.2,0.2v-14.5H579.8z"></path>
			<path fill="#E0A23C" d="M616.8,431.7c0,3.3-21.8,6-48.7,6c-26.9,0-48.7-2.7-48.7-6c0-3.3,21.8-6,48.7-6     C595,425.8,616.8,428.4,616.8,431.7z"></path>
			<path fill="#C68424" d="M607.5,431.7c0,2.2-17.6,4-39.3,4c-21.7,0-39.3-1.8-39.3-4c0-2.2,17.6-4,39.3-4     C589.9,427.7,607.5,429.5,607.5,431.7z"></path>
		</g>
		<g>
			<g>
				<circle fill="#C68424" cx="573.2" cy="396.9" r="36.5"></circle>
				<path fill="#EAAF59" d="M596.9,369.2h-47.4v0c5.2-4.4,11.5-7.4,18.6-8.4h10.3C585.3,361.8,591.7,364.8,596.9,369.2z"></path>
				<path fill="#EAAF59" d="M609.6,394.9h-70.9V385c0.9-2.8,2.2-5.4,3.8-7.8h61.4C607.2,382.4,609.3,388.4,609.6,394.9z"></path>
				<path fill="#EAAF59" d="M607.9,407.9c-0.7,2.3-1.7,4.5-2.8,6.5h-63.9c-0.6-1-1.1-2.1-1.6-3.1v-3.4H607.9z"></path>
				<path fill="#EAAF59" d="M597.9,423.7c-6.5,6-15.2,9.6-24.7,9.6c-9.5,0-18.2-3.6-24.7-9.6H597.9z"></path>
			</g>
			<circle fill="#E0A23C" cx="566.1" cy="397.3" r="36.5"></circle>
			<circle fill="#C68424" cx="566.1" cy="397.3" r="28.2"></circle>
			
				<text transform="matrix(1 0 0 1 551.9471 410.8218)" fill="#E0A23C" font-family="'Montserrat-Black'" font-size="39.1791px" letter-spacing="3">$</text>
		</g>
	</g>
</g>
</svg>
